<?xml version="1.0" encoding="UTF-8" standalone="no"?>
<svg
   viewBox="0 0 94.829041 210.69119"
   version="1.1"
   id="svg14"
   sodipodi:docname="plaque.svg"
   inkscape:version="1.3 (0e150ed6c4, 2023-07-21)"
   inkscape:export-filename="..\..\..\Users\Marius\Downloads\header.svg"
   inkscape:export-xdpi="96"
   inkscape:export-ydpi="96"
   width="94.829041"
   height="210.69118"
   xml:space="preserve"
   xmlns:inkscape="http://www.inkscape.org/namespaces/inkscape"
   xmlns:sodipodi="http://sodipodi.sourceforge.net/DTD/sodipodi-0.dtd"
   xmlns="http://www.w3.org/2000/svg"
   xmlns:svg="http://www.w3.org/2000/svg"><sodipodi:namedview
     id="namedview14"
     pagecolor="#ffffff"
     bordercolor="#000000"
     borderopacity="0.25"
     inkscape:showpageshadow="true"
     inkscape:pageopacity="0.0"
     inkscape:pagecheckerboard="0"
     inkscape:deskcolor="#d1d1d1"
     inkscape:zoom="2"
     inkscape:cx="22.5"
     inkscape:cy="29.75"
     inkscape:window-width="2560"
     inkscape:window-height="1009"
     inkscape:window-x="1912"
     inkscape:window-y="-8"
     inkscape:window-maximized="1"
     inkscape:current-layer="svg14"
     inkscape:clip-to-page="false"
     showborder="false"
     borderlayer="true" /><defs
     id="defs1"><linearGradient
       id="linearGradient11"
       inkscape:swatch="gradient"><stop
         style="stop-color:#0d1122;stop-opacity:1;"
         offset="0.48026317"
         id="stop11" /><stop
         style="stop-color:#0d1122;stop-opacity:0;"
         offset="1"
         id="stop12" /></linearGradient><linearGradient
       id="swatch48"
       inkscape:swatch="solid"><stop
         style="stop-color:#d07107;stop-opacity:1;"
         offset="0"
         id="stop48" /></linearGradient><style
       id="style1">.cls-1,.cls-4,.cls-5{fill:#fff;}.cls-2,.cls-7{fill:none;}.cls-2,.cls-4,.cls-5,.cls-7{stroke:#1d1d1b;}.cls-2,.cls-4,.cls-5,.cls-6,.cls-7{stroke-miterlimit:10;}.cls-2{stroke-width:3px;}.cls-3,.cls-6{fill:#1d1d1b;}.cls-4{stroke-width:2px;}.cls-6{stroke:#fff;}</style></defs><g
     id="g59"
     inkscape:export-filename="..\src\images\sideDecoration.svg"
     inkscape:export-xdpi="96"
     inkscape:export-ydpi="96"
     transform="rotate(90,93.747932,65.154208)"><g
       id="g1"
       transform="matrix(0.19153745,0,0,0.19153745,19.016851,-3.4346765)"
       style="fill:#43cb28;fill-opacity:1">&#10;		<path
   fill="#bb995f"
   d="M 1143.423,834.392 H 990.576 C 990.114,776.414 972.547,720.709 939.635,673.162 907.533,626.783 863.12,591.204 811.104,570.079 l 25.323,-62.691 c 0.817,-2.028 0.575,-4.329 -0.647,-6.142 -1.222,-1.813 -3.265,-2.899 -5.452,-2.899 h -65.871 l 24.397,-58.085 c 0.853,-2.031 0.635,-4.353 -0.586,-6.188 -1.218,-1.834 -3.276,-2.937 -5.477,-2.937 H 725.41 l 10.957,-25.227 c 0.884,-2.033 0.683,-4.374 -0.532,-6.228 -1.218,-1.854 -3.283,-2.97 -5.501,-2.97 h -45.877 v -37.683 c 0,-3.633 -2.944,-6.577 -6.577,-6.577 h -77.075 -1.611 -77.074 c -3.633,0 -6.577,2.944 -6.577,6.577 v 37.683 h -45.877 c -2.217,0 -4.283,1.116 -5.501,2.97 -1.215,1.854 -1.416,4.194 -0.532,6.228 l 10.957,25.227 h -57.382 c -2.202,0 -4.26,1.102 -5.477,2.937 -1.22,1.834 -1.439,4.157 -0.586,6.188 l 24.395,58.085 h -65.869 c -2.186,0 -4.229,1.087 -5.452,2.899 -1.223,1.813 -1.464,4.113 -0.647,6.142 l 25.323,62.69 c -52.049,21.138 -96.487,56.752 -128.59,103.167 -32.873,47.531 -50.42,103.205 -50.882,161.147 H 56.577 c -3.633,0 -6.577,2.944 -6.577,6.577 0,3.633 2.944,6.577 6.577,6.577 h 541.222 c 0.776,0 1.509,-0.159 2.201,-0.405 0.691,0.247 1.425,0.405 2.201,0.405 h 541.222 c 3.633,0 6.577,-2.944 6.577,-6.577 0,-3.633 -2.944,-6.577 -6.577,-6.577 z m -171.262,0 H 930.003 C 929.087,741.247 873.728,660.949 787.862,627.617 l 16.345,-40.464 c 101.402,41.179 167.028,137.778 167.954,247.239 z m -257.75,-24.939 c 10.086,4.284 17.122,13.962 18.005,24.939 h -28.078 z m 2.955,-7.315 11.837,-29.305 c 24.988,10.307 41.801,34.502 42.726,61.558 h -31.622 c -0.901,-14.194 -9.917,-26.773 -22.941,-32.253 z m 14.791,-36.618 14.183,-35.112 c 0.327,0.303 0.701,0.566 1.135,0.75 41.791,17.674 69.025,58.024 69.938,103.234 h -37.591 c -0.93,-30.269 -19.714,-57.366 -47.665,-68.872 z m 18.391,-41.632 c -0.475,-0.2 -0.966,-0.293 -1.452,-0.303 l 13.915,-34.448 c 58.798,23.992 98.229,81.623 99.177,145.255 H 825.305 C 824.392,786.004 795.268,742.8 750.548,723.888 Z m 17.39,-46.946 16.968,-42.005 c 82.857,32.123 136.29,109.582 137.205,199.456 H 875.343 C 874.394,765.418 831.669,702.93 767.938,676.942 Z m -77.79,157.45 H 610.699 L 670.69,605.585 h 41.123 c 1.598,0 3.039,-0.965 3.648,-2.443 l 37.941,-92.143 c 0.775,0.321 1.622,0.502 2.513,0.502 h 64.663 z m -87.947,0 c -0.776,0 -1.509,0.158 -2.201,0.405 -0.691,-0.247 -1.425,-0.405 -2.201,-0.405 h -0.338 L 528.874,572.8 h 70.595 1.061 70.595 L 602.537,834.392 Z M 583.402,564.386 564.354,426.908 h 35.012 c 0.319,0 0.624,-0.048 0.921,-0.119 0.297,0.071 0.602,0.119 0.921,0.119 h 34.437 l -19.048,137.478 c -0.025,0.176 -0.019,0.348 -0.02,0.522 h -16.048 -1.061 -16.048 c 0.001,-0.174 0.007,-0.346 -0.018,-0.522 z M 720.803,444.292 h 52.092 l -24.194,57.602 c -0.038,0.09 -0.051,0.184 -0.084,0.274 -0.167,0.237 -0.315,0.491 -0.43,0.77 l -39.018,94.754 h -36.41 l 7.299,-27.838 c 0.311,-1.183 0.054,-2.443 -0.694,-3.412 -0.748,-0.969 -1.901,-1.535 -3.124,-1.535 h -8.933 l 52.435,-120.722 c 0.348,0.057 0.698,0.107 1.061,0.107 z M 522.12,409.868 c 3.633,0 6.577,-2.944 6.577,-6.577 v -37.683 h 70.497 1.611 70.497 v 37.683 c 0,3.633 2.944,6.577 6.577,6.577 h 42.427 l -66.492,153.087 c -0.277,0.638 -0.413,1.296 -0.48,1.953 h -28.843 l 19.594,-141.404 c 0.157,-1.13 -0.182,-2.274 -0.933,-3.134 -0.748,-0.859 -1.834,-1.354 -2.975,-1.354 h -38.969 c -0.319,0 -0.624,0.048 -0.921,0.119 -0.297,-0.071 -0.602,-0.119 -0.921,-0.119 h -39.544 c -1.141,0 -2.227,0.495 -2.975,1.354 -0.75,0.861 -1.089,2.004 -0.933,3.134 l 19.594,141.404 h -28.843 c -0.067,-0.657 -0.203,-1.315 -0.48,-1.953 L 479.693,409.868 Z m -41.816,34.424 52.389,120.615 h -8.933 c -1.223,0 -2.376,0.566 -3.124,1.535 -0.748,0.969 -1.005,2.229 -0.694,3.412 l 7.299,27.838 h -36.212 l -39.02,-94.754 c -0.185,-0.451 -0.453,-0.84 -0.767,-1.177 l -24.135,-57.469 z m -36.219,67.209 c 0.955,0 1.857,-0.214 2.676,-0.58 l 37.975,92.22 c 0.609,1.479 2.05,2.443 3.648,2.443 h 40.925 L 589.3,834.391 H 509.851 L 379.421,511.5 h 64.664 z m -12.023,165.441 c -63.741,25.992 -106.459,88.457 -107.408,157.45 h -46.765 c 0.916,-89.873 54.348,-167.333 137.205,-199.456 z m 4.926,12.194 13.915,34.448 c -0.485,0.01 -0.977,0.103 -1.451,0.304 -44.72,18.912 -73.844,62.117 -74.757,110.504 H 337.81 c 0.946,-63.649 40.372,-121.261 99.178,-145.256 z m 15.536,42.022 c 0.435,-0.184 0.808,-0.447 1.135,-0.75 l 14.183,35.112 c -27.95,11.506 -46.735,38.603 -47.664,68.872 h -37.591 c 0.912,-45.21 28.147,-85.56 69.937,-103.234 z m 18.273,41.676 11.837,29.305 c -13.025,5.48 -22.04,18.059 -22.942,32.254 H 428.07 c 0.926,-27.057 17.739,-51.252 42.727,-61.559 z m 14.792,36.619 10.074,24.939 h -28.078 c 0.882,-10.977 7.918,-20.655 18.004,-24.939 z m -89.797,-222.302 16.346,40.466 c -85.866,33.332 -141.225,113.63 -142.141,206.775 h -42.158 c 0.927,-109.439 66.556,-206.063 167.953,-247.241 z"
   id="path1" />&#10;		<path
   id="polygon1"
   inkscape:label="polygon1"
   style="fill:#bb995f"
   d="m 548.755,585.705 50.919,211.823 51.937,-211.823 z" />&#10;	</g></g></svg>
